# Blender v2.81 (sub 16) OBJ File: ''
# www.blender.org
mtllib Wall.mtl
o Cube
v -0.007331 1.000000 -1.000000
v -0.007331 -1.000000 -1.000000
v -0.007331 1.000000 1.000000
v -0.007331 -1.000000 1.000000
v 0.007331 1.000000 -1.000000
v 0.007331 -1.000000 -1.000000
v 0.007331 1.000000 1.000000
v 0.007331 -1.000000 1.000000
v -0.007331 0.000000 -1.000000
v 0.007331 0.000000 1.000000
v -0.007331 0.000000 1.000000
v 0.007331 0.000000 -1.000000
v 0.007331 -1.000000 0.000000
v -0.007331 1.000000 0.000000
v 0.007331 1.000000 0.000000
v -0.007331 -1.000000 0.000000
v -0.007331 0.000000 0.000000
v 0.007331 0.000000 0.000000
v 0.007331 -1.000000 0.500000
v -0.007331 1.000000 0.500000
v -0.007331 0.000000 0.500000
v 0.007331 1.000000 0.500000
v -0.007331 -1.000000 0.500000
v 0.007331 0.000000 0.500000
v -0.007331 -0.500000 -1.000000
v -0.007331 -0.500000 1.000000
v 0.007331 -0.500000 -1.000000
v 0.007331 -0.500000 1.000000
v 0.007331 -0.500000 0.000000
v -0.007331 -0.500000 0.000000
v 0.007331 -0.500000 0.500000
v -0.007331 -0.500000 0.500000
v 0.007331 1.000000 -0.500000
v -0.007331 -1.000000 -0.500000
v 0.007331 0.000000 -0.500000
v 0.007331 -1.000000 -0.500000
v -0.007331 1.000000 -0.500000
v -0.007331 0.000000 -0.500000
v -0.007331 -0.500000 -0.500000
v 0.007331 -0.500000 -0.500000
v 0.007331 0.500000 1.000000
v -0.007331 0.500000 -1.000000
v -0.007331 0.500000 1.000000
v 0.007331 0.500000 -1.000000
v -0.007331 0.500000 0.000000
v 0.007331 0.500000 0.000000
v 0.007331 0.500000 0.500000
v -0.007331 0.500000 0.500000
v -0.007331 0.500000 -0.500000
v 0.007331 0.500000 -0.500000
v 0.007331 -1.000000 -0.250000
v -0.007331 1.000000 -0.250000
v -0.007331 0.000000 -0.250000
v -0.007331 -0.500000 -0.250000
v 0.007331 1.000000 -0.250000
v -0.007331 -1.000000 -0.250000
v 0.007331 0.000000 -0.250000
v 0.007331 -0.500000 -0.250000
v 0.007331 0.500000 -0.250000
v -0.007331 0.500000 -0.250000
v -0.007331 0.250000 -1.000000
v -0.007331 0.250000 1.000000
v 0.007331 0.250000 -1.000000
v -0.007331 0.250000 0.000000
v 0.007331 0.250000 0.000000
v 0.007331 0.250000 0.500000
v -0.007331 0.250000 0.500000
v -0.007331 0.250000 -0.500000
v 0.007331 0.250000 -0.500000
v 0.007331 0.250000 1.000000
v -0.007331 0.250000 -0.250000
v 0.007331 0.250000 -0.250000
v 0.007331 1.000000 0.250000
v -0.007331 -1.000000 0.250000
v 0.007331 0.000000 0.250000
v 0.007331 -1.000000 0.250000
v -0.007331 1.000000 0.250000
v -0.007331 0.000000 0.250000
v -0.007331 -0.500000 0.250000
v 0.007331 -0.500000 0.250000
v -0.007331 0.500000 0.250000
v 0.007331 0.500000 0.250000
v 0.007331 0.250000 0.250000
v -0.007331 0.250000 0.250000
vt 0.625000 0.687500
vt 0.875000 0.687500
vt 0.875000 0.750000
vt 0.625000 0.750000
vt 0.562500 0.750000
vt 0.625000 1.000000
vt 0.562500 1.000000
vt 0.562500 0.187500
vt 0.625000 0.187500
vt 0.625000 0.250000
vt 0.562500 0.250000
vt 0.125000 0.687500
vt 0.375000 0.687500
vt 0.375000 0.750000
vt 0.125000 0.750000
vt 0.562500 0.687500
vt 0.625000 0.500000
vt 0.562500 0.500000
vt 0.437500 0.250000
vt 0.500000 0.250000
vt 0.500000 0.500000
vt 0.437500 0.500000
vt 0.437500 0.687500
vt 0.500000 0.687500
vt 0.500000 0.750000
vt 0.437500 0.750000
vt 0.437500 0.187500
vt 0.500000 0.187500
vt 0.500000 1.000000
vt 0.437500 1.000000
vt 0.437500 0.093750
vt 0.500000 0.093750
vt 0.500000 0.125000
vt 0.437500 0.125000
vt 0.437500 0.593750
vt 0.500000 0.593750
vt 0.500000 0.625000
vt 0.437500 0.625000
vt 0.562500 0.593750
vt 0.625000 0.593750
vt 0.625000 0.625000
vt 0.562500 0.625000
vt 0.125000 0.593750
vt 0.375000 0.593750
vt 0.375000 0.625000
vt 0.125000 0.625000
vt 0.562500 0.093750
vt 0.625000 0.093750
vt 0.625000 0.125000
vt 0.562500 0.125000
vt 0.875000 0.593750
vt 0.875000 0.625000
vt 0.562500 0.000000
vt 0.625000 0.000000
vt 0.625000 0.062500
vt 0.562500 0.062500
vt 0.437500 0.000000
vt 0.500000 0.000000
vt 0.500000 0.062500
vt 0.437500 0.062500
vt 0.437500 0.656250
vt 0.500000 0.656250
vt 0.562500 0.656250
vt 0.625000 0.656250
vt 0.125000 0.656250
vt 0.375000 0.656250
vt 0.875000 0.656250
vt 0.375000 0.000000
vt 0.375000 0.062500
vt 0.375000 0.093750
vt 0.375000 0.125000
vt 0.375000 1.000000
vt 0.375000 0.187500
vt 0.375000 0.250000
vt 0.375000 0.500000
vt 0.375000 0.156250
vt 0.437500 0.156250
vt 0.437500 0.562500
vt 0.375000 0.562500
vt 0.875000 0.500000
vt 0.875000 0.562500
vt 0.625000 0.562500
vt 0.125000 0.500000
vt 0.125000 0.562500
vt 0.562500 0.562500
vt 0.500000 0.562500
vt 0.500000 0.156250
vt 0.562500 0.156250
vt 0.625000 0.156250
vt 0.531250 0.156250
vt 0.531250 0.187500
vt 0.531250 0.500000
vt 0.531250 0.562500
vt 0.531250 0.656250
vt 0.531250 0.687500
vt 0.531250 0.000000
vt 0.531250 0.062500
vt 0.531250 0.093750
vt 0.531250 0.125000
vt 0.531250 0.593750
vt 0.531250 0.625000
vt 0.531250 0.250000
vt 0.531250 0.750000
vt 0.531250 1.000000
vn 0.0000 -1.0000 0.0000
vn 0.0000 0.0000 -1.0000
vn -1.0000 0.0000 0.0000
vn 0.0000 1.0000 0.0000
vn 1.0000 0.0000 0.0000
vn 0.0000 0.0000 1.0000
usemtl Material
s off
f 20/1/1 22/2/1 7/3/1 3/4/1
f 43/5/2 3/4/2 7/6/2 41/7/2
f 50/8/3 33/9/3 5/10/3 44/11/3
f 19/12/4 23/13/4 4/14/4 8/15/4
f 48/16/5 20/1/5 3/4/5 43/5/5
f 44/11/6 5/10/6 1/17/6 42/18/6
f 27/19/6 12/20/6 9/21/6 25/22/6
f 32/23/5 21/24/5 11/25/5 26/26/5
f 40/27/3 35/28/3 12/20/3 27/19/3
f 26/26/2 11/25/2 10/29/2 28/30/2
f 80/31/3 75/32/3 18/33/3 29/34/3
f 54/35/5 53/36/5 17/37/5 30/38/5
f 60/39/5 52/40/5 14/41/5 45/42/5
f 51/43/4 56/44/4 16/45/4 13/46/4
f 82/47/3 73/48/3 15/49/3 46/50/3
f 52/40/1 55/51/1 15/52/1 14/41/1
f 41/53/3 7/54/3 22/55/3 47/56/3
f 28/57/3 10/58/3 24/59/3 31/60/3
f 79/61/5 78/62/5 21/24/5 32/23/5
f 81/63/5 77/64/5 20/1/5 48/16/5
f 76/65/4 74/66/4 23/13/4 19/12/4
f 77/64/1 73/67/1 22/2/1 20/1/1
f 74/66/5 79/61/5 32/23/5 23/13/5
f 8/68/3 28/57/3 31/60/3 19/69/3
f 56/44/5 54/35/5 30/38/5 16/45/5
f 76/70/3 80/31/3 29/34/3 13/71/3
f 4/14/2 26/26/2 28/30/2 8/72/2
f 36/73/3 40/27/3 27/19/3 6/74/3
f 23/13/5 32/23/5 26/26/5 4/14/5
f 6/74/6 27/19/6 25/22/6 2/75/6
f 51/76/3 58/77/3 40/27/3 36/73/3
f 2/75/5 25/22/5 39/78/5 34/79/5
f 1/17/1 5/80/1 33/81/1 37/82/1
f 6/83/4 2/75/4 34/79/4 36/84/4
f 42/18/5 1/17/5 37/82/5 49/85/5
f 25/22/5 9/21/5 38/86/5 39/78/5
f 58/77/3 57/87/3 35/28/3 40/27/3
f 59/88/3 55/89/3 33/9/3 50/8/3
f 72/90/3 59/88/3 50/8/3 69/91/3
f 61/92/5 42/18/5 49/85/5 68/93/5
f 84/94/5 81/63/5 48/16/5 67/95/5
f 70/96/3 41/53/3 47/56/3 66/97/3
f 83/98/3 82/47/3 46/50/3 65/99/3
f 71/100/5 60/39/5 45/42/5 64/101/5
f 63/102/6 44/11/6 42/18/6 61/92/6
f 67/95/5 48/16/5 43/5/5 62/103/5
f 69/91/3 50/8/3 44/11/3 63/102/3
f 62/103/2 43/5/2 41/7/2 70/104/2
f 68/93/5 49/85/5 60/39/5 71/100/5
f 65/99/3 46/50/3 59/88/3 72/90/3
f 46/50/3 15/49/3 55/89/3 59/88/3
f 29/34/3 18/33/3 57/87/3 58/77/3
f 13/71/3 29/34/3 58/77/3 51/76/3
f 34/79/5 39/78/5 54/35/5 56/44/5
f 37/82/1 33/81/1 55/51/1 52/40/1
f 36/84/4 34/79/4 56/44/4 51/43/4
f 49/85/5 37/82/5 52/40/5 60/39/5
f 39/78/5 38/86/5 53/36/5 54/35/5
f 18/33/3 65/99/3 72/90/3 57/87/3
f 38/86/5 68/93/5 71/100/5 53/36/5
f 11/25/2 62/103/2 70/104/2 10/29/2
f 35/28/3 69/91/3 63/102/3 12/20/3
f 21/24/5 67/95/5 62/103/5 11/25/5
f 12/20/6 63/102/6 61/92/6 9/21/6
f 53/36/5 71/100/5 64/101/5 17/37/5
f 75/32/3 83/98/3 65/99/3 18/33/3
f 10/58/3 70/96/3 66/97/3 24/59/3
f 78/62/5 84/94/5 67/95/5 21/24/5
f 9/21/5 61/92/5 68/93/5 38/86/5
f 57/87/3 72/90/3 69/91/3 35/28/3
f 17/37/5 64/101/5 84/94/5 78/62/5
f 24/59/3 66/97/3 83/98/3 75/32/3
f 66/97/3 47/56/3 82/47/3 83/98/3
f 64/101/5 45/42/5 81/63/5 84/94/5
f 19/69/3 31/60/3 80/31/3 76/70/3
f 16/45/5 30/38/5 79/61/5 74/66/5
f 14/41/1 15/52/1 73/67/1 77/64/1
f 13/46/4 16/45/4 74/66/4 76/65/4
f 45/42/5 14/41/5 77/64/5 81/63/5
f 30/38/5 17/37/5 78/62/5 79/61/5
f 47/56/3 22/55/3 73/48/3 82/47/3
f 31/60/3 24/59/3 75/32/3 80/31/3
